<?xml version="1.0" encoding="utf-8"?>
<!-- Generator: Adobe Illustrator 21.0.0, SVG Export Plug-In . SVG Version: 6.00 Build 0)  -->
<svg version="1.1" id="Layer_1" xmlns="http://www.w3.org/2000/svg" xmlns:xlink="http://www.w3.org/1999/xlink" x="0px" y="0px"
	 viewBox="0 0 400 400" style="enable-background:new 0 0 400 400;" xml:space="preserve">
<g>
	<g>
		<path d="M117.4,287h54.2h54.2v98.7H318V16H171.6H25.2v369.6h92.2V287z M247.3,42.3h40.9v37.6h-40.9V42.3z M247.3,122.6h40.9v37.6
			h-40.9V122.6z M247.3,202.8h40.9v37.6h-40.9V202.8z M247.3,289.1h40.9v37.6h-40.9V289.1z M186.4,42.3h40.9v37.6h-40.9V42.3z
			 M186.4,122.6h40.9v37.6h-40.9V122.6z M186.4,202.8h40.9v37.6h-40.9V202.8z M115.9,42.3h40.9v37.6h-40.9V42.3z M115.9,122.6h40.9
			v37.6h-40.9V122.6z M95.9,326.6H55v-37.6h40.9V326.6z M95.9,240.4H55v-37.6h40.9V240.4z M95.9,160.1H55v-37.6h40.9V160.1z
			 M95.9,79.9H55V42.3h40.9V79.9z M115.9,202.8h40.9v37.6h-40.9V202.8z"/>
		<polygon points="171.6,385.7 7.1,385.7 7.1,400.6 171.6,400.6 336.1,400.6 336.1,385.7 		"/>
	</g>
</g>
</svg>
